<?xml version="1.0" standalone="no"?><!DOCTYPE svg PUBLIC "-//W3C//DTD SVG 1.1//EN" "http://www.w3.org/Graphics/SVG/1.1/DTD/svg11.dtd"><svg t="1758176752932" class="icon" viewBox="0 0 1024 1024" version="1.1" xmlns="http://www.w3.org/2000/svg" p-id="40645" xmlns:xlink="http://www.w3.org/1999/xlink" width="200" height="200"><path d="M822.933333 906.666667H222.4c-54.933333 0-99.733333-44.8-99.733333-99.733334V206.4C122.666667 151.466667 167.466667 106.666667 222.4 106.666667h601.066667c54.933333 0 99.733333 44.8 99.733333 99.733333v601.066667c-0.533333 54.4-45.333333 99.2-100.266667 99.2z" fill="#F8D94B" p-id="40646"></path><path d="M414.933333 346.666667h233.066667v224H414.933333z" fill="#FFFFFF" p-id="40647"></path><path d="M352 658.666667c-44.266667-9.066667-71.466667-49.066667-61.866667-89.066667L336 382.4c9.6-40 53.333333-65.6 97.6-56.533333 44.266667 9.066667 71.466667 49.066667 61.866667 89.066666l-45.866667 187.2c-10.133333 40-53.866667 65.6-97.6 56.533334zM708.266667 659.2c-44.266667 8.533333-87.466667-17.6-96.533334-58.133333l-42.666666-186.666667c-9.066667-40.533333 19.2-80 63.466666-88.533333 44.266667-8.533333 87.466667 17.6 96.533334 58.133333l42.666666 186.666667c9.066667 40.533333-19.2 80-63.466666 88.533333z" fill="#FFFFFF" p-id="40648"></path><path d="M731.2 630.4l-15.466667 9.066667c-33.6 19.733333-78.4 10.666667-100.266666-20.266667l-72-102.933333c-21.333333-30.933333-11.733333-72 21.866666-91.733334l15.466667-9.066666c33.6-19.733333 78.4-10.666667 100.266667 20.266666l72 102.933334c21.866667 30.933333 11.733333 72-21.866667 91.733333z" fill="#FFFFFF" p-id="40649"></path><path d="M334.933333 637.333333l-14.4-10.666666c-31.466667-22.933333-36.266667-64.533333-11.2-93.333334l83.733334-95.466666c25.066667-28.8 70.933333-33.066667 101.866666-10.133334l14.4 10.666667c31.466667 22.933333 36.266667 64.533333 11.2 93.333333l-83.733333 95.466667c-25.066667 28.8-70.4 33.066667-101.866667 10.133333z" fill="#FFFFFF" p-id="40650"></path><path d="M477.866667 485.333333h-85.333334c-10.133333 0-18.666667-8.533333-18.666666-18.666666s8.533333-18.666667 18.666666-18.666667h85.333334c10.133333 0 18.666667 8.533333 18.666666 18.666667S488 485.333333 477.866667 485.333333z" fill="#F8D94B" p-id="40651"></path><path d="M414.933333 502.933333V430.4c0-10.666667 8.533333-19.733333 19.733334-19.733333h1.6c10.666667 0 19.733333 8.533333 19.733333 19.733333v73.066667c0 10.666667-8.533333 19.733333-19.733333 19.733333h-1.6c-11.2-0.533333-19.733333-9.066667-19.733334-20.266667z" fill="#F8D94B" p-id="40652"></path><path d="M578.133333 469.333333a23.466667 21.333333 0 1 0 46.933334 0 23.466667 21.333333 0 1 0-46.933334 0Z" fill="#F8D94B" p-id="40653"></path><path d="M653.866667 469.333333a23.466667 21.333333 0 1 0 46.933333 0 23.466667 21.333333 0 1 0-46.933333 0Z" fill="#F8D94B" p-id="40654"></path></svg>