<?xml version="1.0" standalone="no"?><!DOCTYPE svg PUBLIC "-//W3C//DTD SVG 1.1//EN" "http://www.w3.org/Graphics/SVG/1.1/DTD/svg11.dtd"><svg t="1758174156224" class="icon" viewBox="0 0 1024 1024" version="1.1" xmlns="http://www.w3.org/2000/svg" p-id="12222" xmlns:xlink="http://www.w3.org/1999/xlink" width="200" height="200"><path d="M239.74 314.74l-167.5 11.67a5.997 5.997 0 0 0-5.58 5.98v46.39c0 3.52 3.02 6.28 6.52 5.97l167.5-14.83a6.001 6.001 0 0 0 5.47-5.97v-43.23c0-3.47-2.94-6.22-6.41-5.98zM237.38 403.06l-53.47 0.07c-0.86 0-1.67 0.41-2.18 1.1l-27.13 36.83-28.1-30.84c-0.54-0.6-1.34-0.9-2.14-0.82l-49.98 5.23c-2.06 0.21-3.01 2.66-1.64 4.21l53.58 60.61-53.3 72.35c-1.33 1.8-0.01 4.34 2.24 4.3l57.69-1.22c0.85-0.02 1.65-0.44 2.15-1.13l25.41-35.61 24.35 27.54c0.53 0.6 1.32 0.92 2.12 0.85l54.04-4.56c2.1-0.18 3.08-2.69 1.66-4.24l-53.92-59.17 50.83-71.22c1.27-1.81-0.01-4.28-2.21-4.28zM239.16 571.44L71.89 584.98a6.234 6.234 0 0 0-5.73 6.22v131.72c0 3.65 3.12 6.52 6.76 6.22l167.27-14.02a6.24 6.24 0 0 0 5.72-6.22V577.65c-0.01-3.64-3.12-6.51-6.75-6.21z m-97.69 111.55c0 2.37-1.84 4.33-4.21 4.47l-22.71 1.35a4.477 4.477 0 0 1-4.74-4.47v-14.77c0-2.37 1.85-4.33 4.22-4.47l22.71-1.28a4.48 4.48 0 0 1 4.73 4.47v14.7z m0-45.69c0 2.37-1.84 4.33-4.21 4.47l-22.71 1.35a4.477 4.477 0 0 1-4.74-4.47v-14.77c0-2.37 1.85-4.33 4.22-4.47l22.71-1.28a4.48 4.48 0 0 1 4.73 4.47v14.7zM203 677.89c0 2.37-1.84 4.33-4.21 4.47l-22.71 1.35a4.477 4.477 0 0 1-4.74-4.47v-14.77c0-2.37 1.85-4.33 4.22-4.47l22.71-1.28a4.48 4.48 0 0 1 4.73 4.47v14.7z m0-46.72c0 2.37-1.84 4.33-4.21 4.47l-22.71 1.35a4.477 4.477 0 0 1-4.74-4.47v-14.77c0-2.37 1.85-4.33 4.22-4.47l22.71-1.28a4.48 4.48 0 0 1 4.73 4.47v14.7zM361.59 304.85l-79.76 4.8c-2.84 0.17-5.06 2.5-5.09 5.34l-0.56 46.67a5.412 5.412 0 0 0 5.42 5.48h19.16c2.95 0 5.36 2.36 5.42 5.32l0.31 16.93a5.412 5.412 0 0 1-5.23 5.51l-18.55 0.65c-2.92 0.1-5.23 2.5-5.23 5.41v46.37c0 2.99 2.43 5.42 5.42 5.42h17.57c2.94 0 5.34 2.34 5.42 5.28l0.4 16.36c0.07 2.9-2.15 5.34-5.04 5.54l-20.09 1.41c-2.84 0.2-5.04 2.56-5.04 5.4v47.4c0 2.99 2.43 5.42 5.42 5.42h18.85c2.97 0 5.39 2.4 5.42 5.37l0.91 102.51a5.415 5.415 0 0 1-5.27 5.46l-20.06 0.56a5.42 5.42 0 0 0-5.27 5.42v46.91c0 3.16 2.69 5.65 5.85 5.4l79.39-6.29a5.423 5.423 0 0 0 4.99-5.39l0.99-389.24c0-3.12-2.63-5.6-5.75-5.42zM481.15 294.85l-79.76 4.8c-2.84 0.17-5.06 2.5-5.09 5.34l-0.56 46.67a5.412 5.412 0 0 0 5.42 5.48h19.16c2.95 0 5.36 2.36 5.42 5.32l0.31 16.93a5.412 5.412 0 0 1-5.23 5.51l-18.55 0.65c-2.92 0.1-5.23 2.5-5.23 5.41v46.37c0 2.99 2.43 5.42 5.42 5.42h17.57c2.94 0 5.34 2.34 5.42 5.28l0.4 16.36c0.07 2.9-2.15 5.34-5.04 5.54l-20.09 1.41c-2.84 0.2-5.04 2.56-5.04 5.4v47.4c0 2.99 2.43 5.42 5.42 5.42h18.85c2.97 0 5.39 2.4 5.42 5.37l0.91 102.51a5.415 5.415 0 0 1-5.27 5.46l-20.06 0.56a5.42 5.42 0 0 0-5.27 5.42v46.91c0 3.16 2.69 5.65 5.85 5.4l79.39-6.29a5.423 5.423 0 0 0 4.99-5.39l0.99-389.24c0-3.12-2.63-5.6-5.75-5.42zM713.03 394.45l-169.15 12.87a6.03 6.03 0 0 0-5.57 6.01v275.11c0 3.52 3.01 6.29 6.52 6l169.15-13.82a6.022 6.022 0 0 0 5.53-6V400.46c0-3.51-2.98-6.28-6.48-6.01z m-54.54 227.33a6.13 6.13 0 0 1-5.79 6.12l-46.72 2.63c-3.52 0.2-6.47-2.6-6.47-6.12V465.93c0-3.27 2.57-5.97 5.84-6.12l46.72-2.22c3.5-0.17 6.42 2.62 6.42 6.12v158.07zM950.3 460.16l-73.96 4.56c-4.09 0.25-7.54-3-7.54-7.09v-13.7a7.1 7.1 0 0 1 6.55-7.08l46.97-3.69c3.7-0.29 6.55-3.38 6.55-7.08v-42.12c0-4.12-3.48-7.37-7.59-7.09l-44.96 3.07c-4.02 0.27-7.47-2.85-7.59-6.88l-1.26-41.95c-0.12-4.08-3.65-7.22-7.72-6.87l-44.5 3.88a7.108 7.108 0 0 0-6.49 7.13l0.83 129.95c0.02 3.74-2.85 6.86-6.58 7.13l-47.05 3.49a7.113 7.113 0 0 0-6.58 7.09v42.12c0 4.01 3.32 7.23 7.32 7.1l43.73-1.33c3.99-0.12 7.3 3.07 7.32 7.07l0.94 183.13c0.02 4.09 3.49 7.32 7.57 7.06l46.43-3.03a7.103 7.103 0 0 0 6.64-7.14l-0.54-73.28a7.1 7.1 0 0 1 6.62-7.14l46.83-3.18a7.098 7.098 0 0 0 6.62-7.09v-42.02c0-4.1-3.46-7.35-7.55-7.09l-44.53 2.81c-4.09 0.26-7.55-2.98-7.55-7.08l-0.1-42.73a7.105 7.105 0 0 1 6.42-7.09l75.86-7.37a7.102 7.102 0 0 0 6.42-7.07v-42.29c0.02-4.11-3.44-7.36-7.53-7.11z" p-id="12223"></path></svg>