<?xml version="1.0" standalone="no"?><!DOCTYPE svg PUBLIC "-//W3C//DTD SVG 1.1//EN" "http://www.w3.org/Graphics/SVG/1.1/DTD/svg11.dtd"><svg t="1758176763940" class="icon" viewBox="0 0 1024 1024" version="1.1" xmlns="http://www.w3.org/2000/svg" p-id="40800" xmlns:xlink="http://www.w3.org/1999/xlink" width="200" height="200"><path d="M763.4688 806.4c-43.8784 0-84.3776-20.2496-108.032-54.016l-20.224-26.9824c-10.1376-13.5168-6.7584-37.12 6.7328-47.2576 13.5168-10.1376 37.12-6.7584 47.2576 6.7328l20.2496 27.008c23.6288 33.7664 81.024 37.12 108.032 3.3792 13.4912-16.896 20.224-33.7664 16.8704-54.016l-33.7664-259.8912c-10.112-74.2656-74.24-124.9024-148.5056-118.144l-118.144 13.4912h-43.8784l-118.144-13.4912c-74.24-6.7584-138.3936 43.8784-148.5056 118.144L189.6448 661.248a62.2592 62.2592 0 0 0 16.896 54.016c26.9824 30.3872 80.9984 30.3872 108.0064-3.3792l40.4992-50.6368c27.008-33.7408 67.5072-54.016 108.032-54.016h80.9984c20.224 0 33.7408 13.5168 33.7408 33.792 0 20.224-13.4912 33.7408-33.7408 33.7408h-84.4032c-20.224 0-43.8784 10.112-54.016 27.008l-40.4992 50.6112c-26.9824 33.7664-67.5072 54.016-108.0064 54.016-40.4992 0-77.6448-16.896-101.2736-47.2576-26.9824-30.3872-37.12-67.5072-33.7408-108.032l33.7408-259.8912c10.1376-104.6272 111.4112-185.6512 219.392-172.1344l118.1696 13.4912h30.3616l121.5232-13.4912c108.032-13.5168 209.28 67.5072 222.7968 175.5136l33.7408 259.9168c3.3792 40.4992-6.7584 77.6192-33.7408 108.0064a148.096 148.096 0 0 1-104.6528 43.8784z m-209.28-364.544a32.64 32.64 0 0 0 0 47.2576 32.64 32.64 0 0 0 47.2576 0 32.64 32.64 0 0 0 0-47.2576 32.64 32.64 0 0 0-47.2576 0z m70.912-64.128a32.64 32.64 0 0 0 0 47.2576 32.64 32.64 0 0 0 47.232 0 32.64 32.64 0 0 0 0-47.2576 32.64 32.64 0 0 0-47.2576 0z m64.1024 64.128a32.64 32.64 0 0 0 0 47.2576 32.64 32.64 0 0 0 47.2576 0 32.64 32.64 0 0 0 0-47.2576 32.64 32.64 0 0 0-47.2576 0z m-64.128 70.8864a32.64 32.64 0 0 0 0 47.2576 32.64 32.64 0 0 0 47.2576 0 32.64 32.64 0 0 0 0-47.2576 32.64 32.64 0 0 0-47.2576 0z" fill="#FB553C" p-id="40801"></path><path d="M380.672 375.7568a93.1072 93.1072 0 1 0 0 186.2144 93.1072 93.1072 0 0 0 0-186.2144z m0 51.2a41.9072 41.9072 0 1 1 0 83.8144 41.9072 41.9072 0 0 1 0-83.8144z" fill="#FB553C" p-id="40802"></path></svg>